<svg width="24" height="24" viewBox="0 0 24 24" fill="none" xmlns="http://www.w3.org/2000/svg">
<path d="M12 13V2L20 6L12 10" stroke="#0056D2" stroke-width="1.5" stroke-linecap="round" stroke-linejoin="round"/>
<path d="M20.5607 10.2216C21.0928 11.8618 21.1426 13.6203 20.7041 15.2879C20.2656 16.9555 19.3573 18.4621 18.0872 19.6283C16.8172 20.7946 15.2388 21.5714 13.5399 21.8665C11.841 22.1615 10.0932 21.9623 8.50424 21.2925C6.91532 20.6228 5.55224 19.5107 4.57717 18.0885C3.6021 16.6664 3.05609 14.9941 3.00409 13.2706C2.9521 11.547 3.39631 9.84486 4.28388 8.36653C5.17145 6.8882 6.46502 5.69595 8.01068 4.93164" stroke="#0056D2" stroke-width="1.5" stroke-linecap="round" stroke-linejoin="round"/>
<path d="M8.00238 9.99609C7.50129 10.6631 7.17506 11.4449 7.05343 12.2703C6.93179 13.0956 7.01862 13.9383 7.30599 14.7215C7.59336 15.5048 8.07214 16.2036 8.69871 16.7545C9.32529 17.3053 10.0797 17.6906 10.8933 17.8753C11.7069 18.0599 12.5538 18.0381 13.3567 17.8117C14.1597 17.5853 14.8933 17.1616 15.4906 16.5792C16.0879 15.9967 16.53 15.2741 16.7766 14.4771C17.0232 13.6801 17.0664 12.8341 16.9024 12.0161" stroke="#0056D2" stroke-width="1.5" stroke-linecap="round" stroke-linejoin="round"/>
</svg>
