<svg width="24" height="24" viewBox="0 0 24 24" fill="none" xmlns="http://www.w3.org/2000/svg">
<path d="M12.9998 6.9998L8.6998 2.6998C8.24818 2.25036 7.63695 1.99805 6.9998 1.99805C6.36265 1.99805 5.75143 2.25036 5.2998 2.6998L2.6998 5.2998C2.25036 5.75143 1.99805 6.36265 1.99805 6.9998C1.99805 7.63695 2.25036 8.24818 2.6998 8.6998L6.9998 12.9998" stroke="#0056D2" stroke-width="1.5" stroke-linecap="round" stroke-linejoin="round"/>
<path d="M8 6L10 4" stroke="#0056D2" stroke-width="1.5" stroke-linecap="round" stroke-linejoin="round"/>
<path d="M18 16L20 14" stroke="#0056D2" stroke-width="1.5" stroke-linecap="round" stroke-linejoin="round"/>
<path d="M17 11L21.3 15.3C22.24 16.24 22.24 17.76 21.3 18.7L18.7 21.3C17.76 22.24 16.24 22.24 15.3 21.3L11 17" stroke="#0056D2" stroke-width="1.5" stroke-linecap="round" stroke-linejoin="round"/>
<path d="M21.1739 6.81238C21.7026 6.2838 21.9997 5.56685 21.9998 4.81923C21.9999 4.07162 21.703 3.35459 21.1744 2.82588C20.6459 2.29717 19.9289 2.00009 19.1813 2C18.4337 1.99991 17.7166 2.2968 17.1879 2.82538L3.84193 16.1744C3.60975 16.4059 3.43805 16.6909 3.34193 17.0044L2.02093 21.3564C1.99509 21.4429 1.99314 21.5347 2.01529 21.6222C2.03743 21.7097 2.08285 21.7896 2.14673 21.8534C2.21061 21.9172 2.29055 21.9624 2.37809 21.9845C2.46563 22.0065 2.55749 22.0044 2.64393 21.9784L6.99693 20.6584C7.3101 20.5631 7.59511 20.3925 7.82693 20.1614L21.1739 6.81238Z" stroke="#0056D2" stroke-width="1.5" stroke-linecap="round" stroke-linejoin="round"/>
<path d="M15 5L19 9" stroke="#0056D2" stroke-width="1.5" stroke-linecap="round" stroke-linejoin="round"/>
</svg>
